<svg xmlns="http://www.w3.org/2000/svg" viewBox="0 0 197.6 95.7"><defs><style>.cls-1{fill:#fff;}</style></defs><title>Datový zdroj 1</title><g id="Vrstva_2" data-name="Vrstva 2"><g id="Vrstva_1-2" data-name="Vrstva 1"><rect class="cls-1" x="81.6" y="1.5" width="16" height="16"/><rect class="cls-1" x="81.6" y="23" width="16" height="51.1"/><polygon class="cls-1" points="113.5 74.1 129.5 74.1 129.5 17.4 191.1 17.4 197.6 1.5 103.1 1.5 103.1 17.4 113.5 17.4 113.5 74.1"/><path class="cls-1" d="M171.7,23,162,47l-9.7-24H135.1l18.3,45.3-2.3,5.8a9.38,9.38,0,0,1-8.6,5.6H13.6l-6.4,16h135c17.4,0,23.8-16,23.8-16L188.9,23Z"/><path class="cls-1" d="M38,75.7A37.94,37.94,0,0,0,75.9,37.8a24.58,24.58,0,0,0-.2-2.8H31.5L25,51H55.4A22,22,0,1,1,37.8,15.9a22.29,22.29,0,0,1,16.3,7.2H72.8A37.89,37.89,0,1,0,38,75.7Z"/></g></g></svg>